<svg width="112" height="181" viewBox="0 0 112 181" fill="none" xmlns="http://www.w3.org/2000/svg">
<path d="M110.853 50.2185L95.9414 44.1252L91.1075 40.6492L82.9553 36.0281L85.4542 33.0428H81.3986L80.2106 27.8492L62.9231 20.9789L47.2743 15.0492L39.6547 16.685L45.185 20.9789L29.9458 27.8492L19.2128 34.9853H27.3855L19.2128 41.5489L1.35181 50.2185V137.119C1.35181 137.119 5.85534 150.468 16.5501 158.916C27.2448 167.365 56.1228 180.386 56.1228 180.386C56.1228 180.386 81.5268 168.959 92.2136 160.511C102.9 152.063 110.853 137.119 110.853 137.119V50.2185Z" fill="#690D0F"/>
<path d="M52.0464 28.3296C50.546 28.8834 48.9582 29.0981 47.4609 29.683C42.9907 31.2263 39.3316 34.2973 36.3401 37.8785C32.3877 42.7634 30.5785 49.4032 30.7906 55.6167C31.0713 57.9129 31.1337 60.3772 31.9136 62.5676C32.0883 60.9497 31.6952 59.3971 31.9635 57.7916C32.6747 53.3111 33.6199 49.0765 36.3619 45.3521C37.6097 43.6004 39.0415 42.0447 40.9163 40.9432C38.9542 43.7217 38.1493 46.9763 37.8904 50.3242C37.6315 54.9291 39.1351 59.4624 41.8739 63.1525C45.3396 67.9441 50.0032 70.6977 54.829 73.8994C56.0455 74.7581 62.1785 78.9981 63.4419 79.7728C61.0337 79.807 58.6161 79.8226 56.2048 79.7853C54.5546 78.5594 47.9444 73.9803 46.3098 72.745C43.6926 70.735 40.7322 68.6535 38.7327 65.9901C37.7594 64.6429 36.8548 63.2085 36.1841 61.6871C35.4541 60.038 35.3699 58.3112 34.5433 56.7243C34.6961 58.753 35.1984 60.735 35.345 62.7698C35.4011 63.641 35.4541 64.5153 35.554 65.3834C35.2108 65.1314 34.8677 64.8794 34.5214 64.6305C35.1391 65.791 35.8222 66.9111 36.4649 68.0561C35.0642 67.9659 33.6698 68.081 32.2754 68.0343C31.8699 67.7388 31.5985 67.2378 31.3271 66.824C28.66 62.4213 27.2344 57.3404 27.2843 52.191C27.3966 47.5114 28.9439 42.863 31.4363 38.9146C32.9024 36.469 35.0954 34.4093 37.3102 32.6389C39.9368 30.5356 43.0406 29.2568 46.3129 28.538C48.1534 28.0962 50.1716 28.1989 52.0464 28.3296Z" fill="#FAA200"/>
<path d="M50.5367 44.1446C52.5187 43.8267 54.644 44.0324 56.4826 44.8613C55.8313 44.9206 55.1768 44.9455 54.5255 45.0047C51.5931 45.2976 48.8851 47.2952 47.7289 50.0032C46.953 51.9385 47.0402 54.1292 47.8037 56.0582C48.6327 58.3581 50.7891 60.259 52.6464 61.7673C51.8518 60.5177 51.0415 59.3522 50.6551 57.8937C49.9384 55.2542 50.1285 52.3 51.026 49.7259C51.1506 54.4596 54.0519 58.3363 57.6605 61.1316C61.8488 64.4193 66.5606 66.5446 70.6616 69.9632C72.8461 71.7364 78.9563 77.5992 80.907 79.6217C79.4144 79.6155 77.9123 79.6902 76.4196 79.6061C75.7091 79.4628 70.9203 75.0583 70.3032 74.6875C67.2181 72.5996 63.9398 71.3562 60.6366 69.7139C59.013 68.9161 57.3427 68.2274 55.6941 67.4857C53.117 66.3078 50.7143 64.625 48.6763 62.6617C46.6164 60.4927 44.9648 57.7255 44.3696 54.7743C44.005 52.5493 44.0424 50.0406 45.0988 47.9963C46.0773 45.9521 48.3896 44.612 50.5367 44.1446Z" fill="#FAA200"/>
<path d="M56.9421 85.3281C60.1823 85.283 63.4443 85.2593 66.6845 85.3066C67.3618 85.6787 67.7676 86.3476 68.2639 86.8379C70.2243 88.8918 71.9474 91.0382 73.7703 93.1502C74.8691 94.417 75.7369 95.7762 76.895 97.0151C76.664 93.9137 76.8763 90.7974 76.7576 87.6939C76.7639 86.7648 75.6495 86.0056 74.8598 85.326C78.1936 85.3303 81.5273 85.3496 84.8611 85.3152C84.4959 85.7109 84.0152 86.1518 83.8747 86.6164C83.728 87.2508 83.7749 87.9176 83.7749 88.5585C83.8029 93.361 83.8123 98.1635 83.7717 102.968C83.7749 103.74 83.6562 104.573 83.8997 105.33C84.1463 105.85 84.6926 106.332 85.1265 106.784C82.4576 106.556 79.8323 106.642 77.0729 106.624C75.4185 104.846 74.0825 102.945 72.4593 101.155C70.4116 98.841 68.6198 96.3978 66.4191 94.1503C66.4972 96.5161 66.4784 98.8819 66.5065 101.248C66.5409 102.379 66.3505 103.583 66.6876 104.695C66.8811 105.362 67.4055 105.889 67.9799 106.424C64.5025 106.297 61.0314 106.31 57.554 106.353C58.1096 105.687 58.7995 104.968 59.096 104.22C59.2895 103.611 59.199 102.947 59.2115 102.323C59.2053 97.4516 59.2084 92.5652 59.2115 87.6939C59.3551 86.7261 57.8006 85.969 56.9421 85.3281Z" fill="#FAA200"/>
<path d="M95.4476 85.2836C100.557 85.2944 105.661 85.2901 110.771 85.2901C110.771 87.649 110.771 90.0059 110.771 92.3649C108.685 92.3412 106.602 92.2141 104.517 92.1968C104.495 91.5678 104.585 90.9042 104.416 90.2838C104.141 89.7904 103.45 89.2691 102.646 89.2217C101.405 89.1269 100.135 89.1786 98.8876 89.1614C98.0588 89.1765 97.2583 89.1226 96.5859 89.5212C95.7541 89.9994 95.8698 90.8633 95.7885 91.5376C95.7353 94.7691 95.7103 98.0006 95.7134 101.232C95.751 101.956 95.6353 102.622 96.2951 103.236C96.7673 103.697 97.4678 103.906 98.2621 103.97C100.051 104.127 101.843 104.224 103.616 104.466C103.569 102.811 103.669 101.159 103.657 99.5065C103.747 98.8731 102.847 98.4659 102.521 97.8735C102.052 97.0635 101.643 96.2534 101.005 95.4929C104.235 95.7407 107.525 95.5899 110.771 95.6308C110.771 100.026 110.771 104.42 110.771 108.815C108.582 108.699 106.365 108.555 104.207 108.292C101.211 107.969 98.0245 107.867 95.0817 107.353C93.393 107.06 91.8544 106.482 90.6223 105.631C89.3839 104.806 88.5459 103.738 88.5928 102.525C88.649 98.285 88.5302 94.0474 88.5802 89.8077C88.5959 88.1251 90.4816 86.8326 92.4142 85.9924C93.3805 85.6024 94.2843 85.2448 95.4476 85.2836Z" fill="#FAA200"/>
<path d="M46.1499 85.2252C48.1112 85.2058 50.0413 85.4171 51.6528 86.2379C53.2175 87.0285 54.4103 88.2176 54.2886 89.607C54.2636 93.3403 54.3048 97.0759 54.311 100.809C54.3079 101.83 54.4484 102.744 53.7612 103.688C52.8961 104.873 51.3154 105.941 49.4321 106.305C47.6051 106.669 45.5344 106.602 43.648 106.652C41.496 106.719 39.253 106.874 37.0855 106.833C34.2778 106.738 31.6735 105.493 30.8989 103.59C30.7304 102.822 30.8458 102.016 30.8364 101.241C30.8489 97.2921 30.8425 93.3409 30.8394 89.3922C30.8019 88.5003 31.399 87.7484 32.1392 87.0504C33.0574 86.2361 34.2875 85.5791 35.8335 85.5123C39.2691 85.1892 42.6925 85.2855 46.1499 85.2252ZM44.8862 89.1451C43.3396 89.1063 41.7142 89.1084 40.1675 89.1559C39.3505 89.1451 38.6399 89.5443 38.2798 90.025C37.9949 90.4734 38.0386 91.0452 38.023 91.526C38.0762 94.1129 38.0355 96.6998 38.0386 99.2867C38.0511 100.199 37.9414 101.137 38.1167 102.041C38.3079 102.735 39.232 103.039 40.1743 103.101C41.7365 103.159 43.3272 103.024 44.8862 102.933C45.7722 102.888 46.8117 102.478 47.0747 101.866C47.2876 101.029 47.1428 100.136 47.1616 99.2867C47.1773 96.4798 47.1681 93.6835 47.1743 90.8766C47.2712 89.9561 46.2417 89.1388 44.8862 89.1451Z" fill="#FAA200"/>
<path d="M0.0819092 85.2914C6.66946 85.3647 13.31 85.1878 19.8944 85.3559C22.4641 85.6512 25.1246 86.9145 25.9344 88.6948C26.3734 89.5115 26.2296 90.3027 26.1766 91.1518C26.0272 92.7185 26.2828 94.4684 25.66 95.9985C25.0091 97.3196 23.7103 98.4729 21.7919 98.9946C23.723 101.68 25.4517 104.432 27.5292 107.073C24.5578 107.439 21.5488 107.506 18.5712 107.817C18.6428 107.369 18.7487 106.911 18.7362 106.46C18.6178 106.012 18.3001 105.568 18.0292 105.155C16.8643 103.418 15.7867 101.652 14.6249 99.9125C13.3386 100.001 12.0988 100.187 10.8593 100.435C10.853 102.297 10.8468 104.161 10.8593 106.023C10.8312 107.038 11.5531 107.834 12.2196 108.694C10.5689 108.817 8.98641 109.127 7.37 109.364C5.41723 109.62 3.48939 109.942 1.54285 110.226C2.45227 109.133 3.84691 107.761 3.68835 106.453C3.68213 100.633 3.69477 94.811 3.68542 88.9916C3.69471 88.5046 3.55797 88.0477 3.13757 87.6469C2.24056 86.7999 1.13465 86.0479 0.0819092 85.2914ZM16.452 89.4223C14.5429 89.3515 12.7117 89.4686 10.8182 89.6059C10.8307 91.7553 10.7895 93.9076 10.8427 96.0571C12.8674 96.0356 14.6739 96.1664 16.6425 95.7524C17.658 95.5164 18.5388 94.8766 18.6825 94.1323C18.9417 92.8711 18.8576 91.5586 18.6483 90.2954C17.9797 89.9178 17.3768 89.4481 16.452 89.4223Z" fill="#FAA200"/>
<path d="M42.4784 116.895C44.5725 116.867 46.6635 116.749 48.7576 116.713C48.5909 121.617 48.7576 126.545 48.7387 131.457C48.833 136.178 48.7041 140.9 48.7796 145.622C48.7859 147.114 49.2795 148.332 49.7323 149.667C46.8521 149.631 44.0034 149.627 41.1295 149.939C41.7206 148.397 42.5256 146.989 42.5539 145.217C42.7991 137.137 42.6765 129.025 42.6545 120.937C42.6545 119.586 42.5665 118.242 42.4784 116.895Z" fill="#FAA200"/>
<path d="M52.3541 116.727C58.0841 116.654 63.8141 116.889 69.5441 116.808C69.6378 118.983 69.6847 121.142 70.0034 123.288C66.6666 123.312 63.3299 123.171 59.9931 123.231C59.9993 125.248 59.9775 127.269 60.0118 129.29C62.7112 129.286 65.4044 129.407 68.1007 129.347C67.7289 131.368 67.4289 133.409 67.079 135.438C64.8108 135.438 62.5425 135.438 60.2774 135.438C59.8743 137.973 60.0056 140.472 59.9962 143.035C63.4298 143.043 66.8634 143.003 70.2971 143.059C70.0003 145.23 69.7597 147.413 69.6097 149.608C64.0859 149.653 58.559 149.555 53.0352 149.608C53.4195 148.146 53.7632 146.721 53.7445 145.157C53.7476 138.273 53.7382 131.388 53.7476 124.503C53.7382 123.171 53.8351 121.794 53.6945 120.469C53.3977 119.165 52.7978 117.958 52.3541 116.727Z" fill="#FAA200"/>
<path d="M32.5372 117.351C34.6304 117.177 36.7391 117.145 38.8354 117.031C38.1574 120.438 37.3892 123.816 36.6956 127.218C35.2462 135.134 33.6009 142.99 32.1235 150.898C29.4861 151.346 26.8299 151.136 24.2049 151.637C23.3776 148.889 22.8861 145.964 22.2765 143.123C21.1413 137.07 19.9501 131.041 18.79 124.996C18.5225 123.848 18.4012 122.377 17.7014 121.541C16.7559 120.288 15.8352 119.007 14.9115 117.727C17.7791 117.739 20.6468 117.589 23.5113 117.524C23.925 120.191 24.4972 122.806 24.9451 125.465C25.9404 130.782 26.7833 136.173 27.9776 141.418C29.3212 134.835 30.5031 128.188 31.685 121.553C31.9431 120.155 32.1422 118.696 32.5372 117.351Z" fill="#FAA200"/>
<path d="M73.0007 116.925C74.3618 117.165 75.7198 117.298 77.0934 117.294C79.7032 117.278 82.2881 117.712 84.8979 117.696C87.6326 117.675 90.3454 117.967 93.0739 118.093C92.6337 120.116 92.3434 122.171 92.0531 124.238C90.0738 124.161 88.1009 123.946 86.1248 123.768C85.722 131.036 85.9125 138.377 85.8282 145.666C85.772 147.579 86.4369 149.139 86.849 151C84.3048 150.891 81.7667 150.579 79.2381 150.246C79.9249 148.665 80.5055 147.129 80.4743 145.26C80.5773 137.988 80.5211 130.708 80.5087 123.431C78.5419 123.334 76.5783 123.403 74.6116 123.314C74.0372 121.19 73.6906 119.001 73.0007 116.925Z" fill="#FAA200"/>
<path d="M6.47973 117.204C7.18548 117.204 7.62701 117.204 8.35965 117.204C8.35965 117.204 8.36161 125.632 8.35224 126.569C8.42718 131.172 8.05245 133.947 9.6763 138.303C10.5757 141.04 12.2682 143.24 14.1887 145.34C15.8251 147.256 17.7706 148.757 19.7535 150.292C25.0498 153.956 30.3554 157.563 35.9764 160.721C42.2189 164.238 48.6268 167.743 55.2534 170.473C55.8717 170.729 56.2558 170.86 56.8929 170.551C62.5763 168.076 67.8882 165.184 73.3874 162.369C79.5269 159.021 85.4976 155.27 91.05 151.01C95.0534 148.223 98.5728 144.582 101.027 140.353C102.804 137.086 103.807 133.335 103.753 129.606C103.91 127.069 103.816 119.989 103.753 117.449C104.8 117.449 104.985 117.409 105.65 117.449C105.657 122.102 105.933 131.837 104.8 136.371C104.15 139.189 102.604 141.707 100.949 144.042C98.7633 146.906 96.1682 149.478 93.364 151.737C89.1232 155.051 84.7357 158.197 80.1577 161.024C75.7795 163.592 71.2983 166.017 66.6953 168.158C63.4101 169.656 60.1874 171.378 56.8023 172.636C55.9373 173.026 55.1972 172.53 54.3822 172.243C47.3715 169.156 40.5201 165.692 33.8873 161.863C29.0876 159.027 24.4315 155.972 19.8722 152.764C17.1491 150.857 14.6509 148.654 12.3557 146.254C8.9362 142.531 6.75962 137.772 6.47232 132.705C6.0851 129.156 6.5297 120.789 6.47973 117.204Z" fill="#1EB4FF"/>
<path d="M109.27 117.535C110.108 117.573 110.942 117.626 111.779 117.654C111.807 120.354 111.77 129.09 111.779 131.787C111.745 133.508 111.564 135.222 111.392 136.934C110.904 140.354 109.755 143.74 107.993 146.718C106.206 149.598 103.897 152.186 101.485 154.556C95.8679 159.781 89.6476 164.083 83.0088 167.906C77.2072 171.401 70.9902 174.313 64.898 177.277C62.13 178.631 59.2558 179.759 56.4378 181C55.6224 180.716 54.8133 180.42 54.0166 180.087C49.5397 178.21 44.9315 176.37 40.6327 174.113C32.9254 170.157 25.0806 165.876 18.0544 160.807C13.2182 157.324 8.01336 153.283 4.67051 148.295C1.69631 144.036 0.409156 138.839 0.196713 133.707C-0.0219783 130.586 0.0748752 120.29 0.196717 117.163C1.09648 117.035 1.98998 116.886 2.88349 116.733C2.76789 119.866 2.76164 130.209 2.75852 133.346C2.88661 136.005 3.46459 138.661 4.21126 141.212C5.02979 144.092 6.71683 146.727 8.59133 149.037C11.7342 152.969 15.5957 155.665 19.5696 158.662C25.5461 163.054 31.9569 166.509 38.4552 170.044C44.1724 173.016 49.9739 175.781 55.9786 178.122C56.5378 178.39 57.0595 177.973 57.5844 177.786C62.5331 175.482 67.4755 173.181 72.3148 170.652C79.0973 167.263 85.5956 163.628 91.7502 159.173C94.4182 157.131 97.0519 155.204 99.4138 152.8C101.851 150.512 104.022 147.968 105.784 145.124C106.968 143.163 107.712 140.841 108.336 138.646C109.63 133.523 108.927 122.764 109.27 117.535Z" fill="#FAA200"/>
<path d="M72.2723 32.7513C73.5384 32.4245 74.1816 34.547 73.1417 35.1968C72.3872 35.8255 71.2916 35.5121 70.9765 34.5624C70.7429 33.6626 71.4751 32.9263 72.2723 32.7513Z" fill="#FAA200"/>
<path d="M95.674 42.3026C96.6065 42.466 97.5111 42.8717 98.4065 43.1812C103.052 44.8154 107.555 46.8052 112 48.9508C111.989 52.6901 112.007 56.4295 111.961 60.1689C111.902 66.4383 111.967 72.7059 111.924 78.9734C110.962 78.9715 110 78.9868 109.038 78.983C109.071 69.4817 109.056 59.9805 109.051 50.4792C104.075 48.4624 99.2073 46.2938 94.1521 44.6846C94.7564 43.9502 95.1661 43.1004 95.674 42.3026Z" fill="#FAA200"/>
<path d="M38.4355 0C39.2276 1.41443 40.0154 2.8088 41.0664 4.0752C42.8989 6.59015 45.0634 8.86516 47.6602 10.7139C51.5093 13.6389 55.7566 15.6039 60.1709 17.6406C64.8762 19.9995 69.7912 21.8269 74.7705 23.6035C76.2284 24.1277 77.6657 24.7218 79.04 25.416C80.0011 25.9062 80.8504 26.5027 81.3877 27.4189C81.85 28.2031 81.8891 29.203 82.0859 30.0771C82.7259 28.4086 82.5525 26.4943 81.2725 25.1318C80.2685 24.1135 79.0247 23.285 77.6953 22.6748C74.8631 21.3623 71.9342 20.4296 68.9863 19.4072C67.0897 18.751 64.9724 18.1491 63.2363 17.1768C62.0141 16.4926 61.1149 15.5261 60.2822 14.4639C63.3071 16.2804 67.0426 17.0769 70.457 18.0332C72.5807 18.6594 74.7518 19.2671 76.792 20.1094C79.5728 21.3258 82.1927 22.8369 83.8262 25.3457C84.5304 26.37 84.835 27.5505 84.5332 28.7529C84.2763 30.1214 83.379 31.0321 82.375 31.9824C83.2782 31.9804 84.2137 31.844 85.1084 31.96C85.6242 32.038 86.2471 32.3883 86.1982 32.9482C86.1661 33.6705 85.4491 34.371 85.0273 34.9492C85.9907 34.435 86.8925 33.8531 87.7959 33.2529C88.4188 32.825 89.0886 33.0669 89.7949 33.127C88.7718 34.4554 88.5189 36.128 89.0283 37.6865C89.6277 39.1491 91.2698 39.8017 92.6143 40.5439C93.9501 41.2422 94.9241 42.2668 95.8682 43.3672C95.7783 42.6789 95.7463 42.0122 95.3203 41.418C94.8643 40.7898 94.072 40.3994 93.4062 39.9893C92.4601 39.4271 91.4243 38.6664 90.9277 37.7041C90.3028 36.3897 90.5699 34.8533 91.5459 33.7529C92.3165 32.8067 93.4855 32.2903 94.7334 32.1602C95.8102 32.0641 96.9414 32.1164 97.9326 32.5605C98.9642 33.0087 99.7173 33.9191 100.18 34.8672C100.801 36.0917 100.685 37.617 100.174 38.8555C99.8227 39.7016 99.1974 40.2718 98.5488 40.9199C98.1528 40.1237 97.6839 39.4532 96.9668 38.877C97.3114 37.9866 97.5381 37.1541 96.9365 36.3018C96.2899 35.2477 94.567 35.0676 93.7363 36.0176C92.9872 36.8538 93.2589 38.0905 94.0059 38.8428C94.8749 39.689 95.9454 40.1333 96.6348 41.1875C97.4033 42.2919 97.3561 43.6513 96.7246 44.8018C95.941 46.36 94.2544 47.3066 92.4971 47.6367C91.4632 47.8267 90.5296 47.5861 89.5557 47.2881C90.6087 47.1821 91.6025 47.1716 92.5742 46.7275C93.3425 46.3694 94.0655 45.7311 94.2432 44.917C94.4293 44.0248 93.8925 43.1707 93.1904 42.6025C92.1757 41.8063 90.8289 41.3161 89.5615 41C86.9284 40.3398 84.1131 41.0415 81.4971 40.3232C80.0886 39.919 79.3349 38.9748 78.1318 38.2666C76.5264 37.2844 74.5226 36.9321 72.6475 37.3281C71.1532 37.6623 69.9089 38.6889 69.3545 40.0254C68.6331 41.776 68.5734 43.879 69.4297 45.5977C70.0484 46.824 71.1443 47.6265 72.418 48.2188C71.4997 48.2928 70.6025 48.345 69.6992 48.127C67.3444 47.5727 65.1054 46.6236 63.168 45.2471C61.3763 44.1047 60.1257 42.4907 58.2891 41.4043C56.2703 40.1038 54.2878 39.243 51.9072 38.6768C53.6262 38.0886 55.448 37.8144 57.2783 37.8584C59.053 37.9084 60.6716 38.4613 62.1787 39.3096C60.5067 36.7666 57.8841 35.1114 55.084 33.7949C52.8962 32.7566 50.3144 32.4846 47.9082 32.1885C50.1816 31.1721 52.8511 30.7998 55.3535 30.7998C57.5671 30.7618 59.8219 31.5662 61.8984 32.2305C63.2192 32.6366 64.3428 33.3333 65.4795 34.0615C64.5183 32.1568 63.4521 29.9812 61.8037 28.5146C60.6349 27.4324 59.2604 26.5759 57.7256 26.0117C58.811 27.0501 59.9716 27.9531 60.9199 29.1455C61.4829 29.8697 61.9584 30.6662 62.4443 31.4385C61.07 30.9003 59.7784 30.2154 58.3955 29.6992C56.0305 28.799 56.5062 28.3326 54.3613 26.9902C52.1884 25.5917 49.8139 26.0118 46.209 24.4912C51.6915 24.4552 57.0066 22.4025 62.0332 24.4912C63.4268 25.0954 64.7139 25.7535 65.75 26.8379C66.3922 27.4941 66.7408 28.2451 67.1582 29.0273C67.2567 27.6549 67.1685 26.2865 66.3037 25.1201C65.7814 24.4119 65.0217 24.0375 64.2275 23.6494C60.6075 21.9648 56.8565 20.7438 53.0566 19.4873C51.3831 18.8665 49.7713 18.1176 48.2559 17.2305C46.4657 17.1365 44.6681 17.1873 42.8779 17.4209C45.7614 19.3619 49.3265 20.4557 52.4551 22.1436C48.9769 22.1922 45.718 22.9319 42.3984 23.792C35.2368 25.6681 28.2302 29.2358 22.7012 33.7344C26.0386 33.2735 29.4232 33.1437 32.7715 32.7412C28.3707 36.1882 24.8633 40.778 22.0771 45.3643C19.9471 49.0482 18.1843 53.0637 17.377 57.1631C19.5143 55.4396 21.7277 53.9137 24.2471 52.6641C23.3641 56.3252 23.5731 59.883 23.5479 63.6025C23.5262 65.3032 23.7458 66.9757 23.9873 68.6602C24.7296 67.9041 25.5013 67.1929 26.3408 66.5244C26.485 67.3551 26.759 68.2025 26.7734 69.043C26.5572 69.4258 26.2874 69.7769 26.0244 70.1436C24.4459 72.3505 23.7603 74.8462 23.335 77.4102C22.6432 76.1736 22.4553 74.6867 22.0518 73.3496C20.7327 68.4293 20.1598 63.3756 20.5742 58.3223C18.9489 59.4485 17.611 60.8214 16.1045 62.0645C14.6196 63.3107 12.9076 64.3755 11.2246 65.3945C12.2708 62.2896 13.3028 59.1805 14.333 56.0703L20.123 42.4297L20.4619 41.6328L19.6025 41.7383L18.5908 41.8623C20.068 39.6995 23.2688 38.3 24.9863 36.3115C20.7405 36.4868 20.2278 37.1095 16.1045 37.9502C19.704 33.7347 19.2954 31.5001 27.96 26.6553C32.476 24.1301 37.3236 22.2437 42.3623 20.7441C38.3472 18.7286 34.0433 17.0186 30.2373 14.7109C32.4755 14.6201 34.6779 14.217 36.916 14.2559C39.3926 14.2837 41.7847 14.2277 44.1592 14.2441C43.8968 14.0063 43.6379 13.7643 43.3867 13.5137C40.9741 11.1588 38.891 8.04668 38.3965 4.77344C38.1846 3.19697 38.245 1.57846 38.4355 0ZM56.3213 32.7803C57.5565 33.3445 58.8497 33.6553 60.0078 34.3936C61.5342 35.2939 62.519 36.6125 63.3389 38.083C63.9254 39.1213 64.2705 40.2338 64.917 41.2441C65.0026 39.6195 64.8799 37.5944 63.8545 36.2139C62.2939 34.3094 59.46 33.3044 57.0176 32.8643C56.7864 32.8323 56.5546 32.8043 56.3213 32.7803ZM78.001 30.7842C77.3395 29.994 76.2696 29.6619 75.2207 29.7979C74.0092 29.9599 72.8636 30.2575 71.6221 30.2275C70.8002 30.2355 70.0377 30.0277 69.2607 29.8057C69.95 30.6897 70.819 31.0276 71.9277 31.2656C72.5593 32.7042 73.795 33.8612 75.2871 34.5234C76.4043 34.8973 77.2625 34.4353 78.0908 33.7793C79.2618 34.8717 80.9089 35.4018 82.5273 34.9316C83.3641 34.7055 83.8158 34.1412 84.3359 33.5391C83.1435 33.8612 82.1457 34.3332 80.8955 33.875C79.4078 33.3627 78.96 31.8205 78.001 30.7842ZM69.7314 26.1777C70.5363 27.6161 72.0347 28.5927 73.7578 28.7969C75.222 29.0029 76.4061 28.5056 77.8125 29.1396C79.0798 29.6578 79.4914 31.1203 80.2021 32.1387C80.2086 31.3065 80.2277 30.4421 79.8447 29.6699C79.4936 28.9417 78.954 28.3207 78.0977 28.0986C76.4685 27.6505 74.576 28.0386 72.8955 27.5664C71.9964 27.3243 71.2275 26.9023 70.4141 26.4922C70.1872 26.3862 69.9604 26.2817 69.7314 26.1777Z" fill="#FAA200"/>
<path d="M76.06 39.9934C76.6615 40.2155 76.9612 40.7157 77.3337 41.1739C76.7964 40.9978 76.2462 40.7537 75.6832 40.6717C75.0495 40.6717 74.4822 41.1439 74.4693 41.7521C74.3794 42.3823 74.7305 43.4027 75.4777 43.5488C77.3637 43.7189 79.8941 42.9446 81.6881 43.7449C83.4393 44.4812 84.0751 46.3259 85.2226 47.6484C86.4599 49.269 88.3545 50.3074 90.4589 50.5815C92.3707 50.8556 94.1497 50.3654 96.0315 50.4795C97.0077 50.5335 97.8897 50.9316 98.6282 51.5159C99.6644 52.3422 100.632 53.5126 100.861 54.7951C101.032 56.0896 101 57.3661 100.266 58.5146C99.5509 59.721 98.3735 60.5713 96.892 60.7634C95.7531 60.9835 94.7213 60.7014 93.6937 60.2632C94.9525 60.2152 96.0892 60.2752 97.226 59.679C98.6432 59.0027 99.6537 57.6742 99.6237 56.1556C99.5488 54.6691 98.3842 53.3246 97.0676 52.5783C95.9265 51.904 94.5222 52.0741 93.2441 52.1641C91.7499 52.3122 90.2855 52.2121 88.8255 51.876C86.6826 51.3978 84.7708 50.1073 83.5934 48.3646C82.9041 47.4123 82.2683 46.2298 81.3049 45.4955C80.6991 45.0254 79.9348 45.1474 79.2262 45.3055C77.7126 45.7196 76.0043 46.4579 74.3965 46.3479C73.0885 46.2878 72.1187 45.3115 71.7462 44.197C71.2967 42.9586 71.5493 41.556 72.5619 40.6277C73.4653 39.7833 74.8889 39.5813 76.06 39.9934Z" fill="#FAA200"/>
<path d="M58.3351 45.8019C59.5982 45.8659 60.567 46.9481 61.6994 47.4643C63.836 48.4287 61.0122 47.4763 63.198 48.4247C65.0605 49.227 67.197 49.9733 69.2672 49.9813C70.7293 49.9993 72.2086 49.8572 73.4203 49.0269C74.4072 48.3706 75.2828 47.7124 76.503 47.4643C77.901 47.1282 79.3546 47.6784 80.3586 48.5927C81.6472 49.8363 82.4071 51.2625 83.2171 52.7829L83.2658 52.8744C83.7625 53.7787 84.5546 54.6891 85.7556 54.627C86.8024 54.543 87.3419 53.8647 87.9692 53.1745C88.2004 54.2869 88.1939 55.3393 87.282 56.1856C86.3165 57.036 85.2075 56.9679 83.9701 56.9359C84.0558 58.2364 84.15 59.4249 83.4542 60.6093C82.508 62.366 80.5042 63.2464 78.4769 63.3564C76.2098 63.5325 73.9469 62.5581 71.6691 62.1059C69.569 61.5717 67.4325 61.7518 65.3645 62.318C66.2187 61.5977 67.0728 60.9295 68.1497 60.5133C70.1534 59.751 72.3049 59.691 74.4115 60.0831C76.1691 60.4073 77.7447 60.8074 79.5473 60.3933C80.3137 60.2272 80.8403 59.785 81.4183 59.3228C80.7076 59.4709 80.0675 59.661 79.3246 59.5829C77.9673 59.4389 76.7257 58.8567 75.4904 58.3545C74.2809 57.8483 72.9493 57.4621 71.6263 57.3581C70.862 57.3001 70.1963 57.5062 69.477 57.6962C70.2969 56.7118 71.3073 55.9576 72.6903 55.8815C74.3344 55.8655 75.8908 56.7098 77.6312 56.3917C78.5839 56.2537 79.391 55.6374 79.5066 54.7091C79.5858 53.2525 78.5539 51.836 76.9762 51.5559C74.6384 51.0837 72.0609 52.0901 69.8109 52.6523C67.7729 53.2345 65.6963 53.3726 63.594 53.0284C60.6162 52.5582 57.7754 51.0557 55.4419 49.307C57.5185 49.7051 59.5693 50.0013 61.6994 49.9392C61.0122 49.4711 59.0438 46.24 58.3351 45.8019Z" fill="#FAA200"/>
<path d="M20.8105 42.1621L19.3359 44.5752L18.3115 43.7568V42.2852L19.3359 41.4258L20.8105 42.1621Z" fill="#FAA200"/>
<path d="M18.9258 44.6075C17.2376 45.1177 15.5641 45.6879 13.8828 46.2228C10.0845 47.4551 6.48445 49.1392 2.78809 50.6388C2.80106 60.0843 2.7532 69.5341 2.83105 78.9796C1.8912 78.9911 0.950594 78.9866 0.0107422 78.9982C0.0200107 68.978 0.0203906 58.9559 0 48.9357C1.64417 48.1033 3.29396 47.3226 4.98633 46.6017C10.1437 44.2558 13.6757 42.9439 18.9258 41.4503V44.6075Z" fill="#FAA200"/>
<path d="M33.264 156.381C34.6213 156.42 35.9801 156.404 37.339 156.425C36.7717 156.908 36.2187 157.404 35.691 157.93C35.0321 157.535 34.378 157.135 33.7412 156.704C33.5816 156.597 33.422 156.49 33.264 156.381Z" fill="#FAA200"/>
<path d="M38.7689 156.404C39.1718 156.406 39.5763 156.408 39.9808 156.411C40.7535 157.191 41.5846 157.915 42.1581 158.857C42.7332 159.77 42.9829 160.911 43.2547 161.945C46.9061 162.034 50.556 162.274 54.2028 162.46C54.217 163.155 54.2312 163.849 54.2502 164.545C53.2216 163.933 52.1076 163.296 50.9352 163.015C49.8087 162.846 48.5762 162.927 47.5066 163.335C46.9425 163.543 46.6391 163.964 46.2583 164.398C44.9058 163.685 43.5533 162.953 42.2703 162.122C42.0965 160.804 41.7631 159.542 40.992 158.438C40.4027 157.55 39.589 157.051 38.7689 156.404Z" fill="#FAA200"/>
<path d="M41.5498 156.406C42.166 156.408 42.7822 156.415 43.3969 156.425C43.7318 157.548 44.2469 158.721 45.067 159.576C45.4367 159.969 45.9534 159.994 46.4543 160.064C47.5492 160.177 48.6442 160.259 49.7344 160.409C49.7708 160.05 49.8055 159.688 49.8387 159.329C48.5968 159.281 47.091 159.497 45.9249 159.029C45.1033 158.535 44.8552 157.264 44.5693 156.419C48.325 156.401 52.0839 156.411 55.8397 156.411C55.8476 157.4 55.835 158.389 55.7923 159.376C55.5332 159.37 55.274 159.363 55.0149 159.357C54.977 158.83 55.0102 158.15 54.691 157.699C54.405 157.291 53.8583 157.307 53.4143 157.286C50.9368 157.283 48.4609 157.267 45.9834 157.291C45.9834 157.578 45.9834 157.867 45.9834 158.155C47.5634 158.132 49.1435 158.187 50.7251 158.182C50.7551 159.234 50.7851 160.285 50.7599 161.337C49.1688 161.25 47.5761 161.152 45.9866 161.045C45.3609 161.001 44.6957 161.023 44.0858 160.874C43.7935 160.344 43.6671 159.731 43.4111 159.18C43.0287 158.281 42.452 157.556 41.8532 156.796C41.752 156.666 41.6509 156.537 41.5498 156.406Z" fill="#FAA200"/>
<path d="M57.0594 156.417C57.4465 156.415 57.832 156.412 58.2192 156.409C58.2666 158.097 58.246 159.788 58.2634 161.477C56.1841 161.513 54.1063 161.411 52.027 161.397C52.0459 160.43 52.0712 159.463 52.0712 158.494C52.5516 158.524 53.0319 158.548 53.5122 158.573C53.547 159.18 53.5628 159.789 53.5723 160.398C54.7352 160.392 55.8981 160.422 57.061 160.452C57.0547 159.106 57.0642 157.762 57.0594 156.417Z" fill="#FAA200"/>
<path d="M59.2178 156.408C59.5907 156.411 59.9651 156.412 60.338 156.414C60.3428 157.74 60.3522 159.07 60.3301 160.397C61.9892 160.274 63.5961 160.332 65.2314 159.999C65.6675 159.908 66.2758 159.867 66.5729 159.497C67.1164 158.867 67.2317 158.097 67.4055 157.311C65.6817 157.266 63.9563 157.31 62.2325 157.292C62.2309 157.646 62.2277 157.999 62.2262 158.352C63.5487 158.319 64.8633 158.185 66.1763 158.239C65.9946 158.51 65.9156 158.873 65.568 158.969C64.3734 159.415 62.9135 159.322 61.651 159.368C61.3556 158.433 61.4978 157.408 61.4678 156.409C64.1886 156.412 66.9094 156.409 69.6302 156.409C69.2905 157.009 68.9129 157.583 68.5558 158.171C68.0644 158.972 67.8464 159.919 67.5651 160.821C66.5318 160.942 65.4984 161.061 64.4667 161.193C62.7507 161.423 61.0238 161.36 59.2541 161.434C59.2115 159.759 59.2209 158.084 59.2178 156.408Z" fill="#FAA200"/>
<path d="M71.4378 156.433C71.8502 156.398 72.2547 156.393 72.6686 156.385C71.8533 157.056 71.0444 157.594 70.4566 158.496C69.6444 159.655 69.4185 160.916 69.1657 162.275C67.8069 163.072 66.418 163.821 65.0228 164.553C64.6958 164.119 64.4335 163.704 63.9105 163.483C62.5706 162.914 60.9558 163.018 59.5764 163.384C58.6537 163.635 57.9474 164.193 57.1985 164.755C57.2016 163.998 57.2048 163.24 57.1937 162.483C60.9305 162.51 64.6563 162.275 68.3615 161.789C68.5953 160.671 68.875 159.617 69.5054 158.647C70.0458 157.83 70.7141 157.094 71.4378 156.433Z" fill="#FAA200"/>
<path d="M74.1223 156.414C75.557 156.415 76.9932 156.426 78.4295 156.412C77.6569 156.93 76.8732 157.436 76.0673 157.9C75.5507 157.494 75.0198 157.106 74.4999 156.704C74.3735 156.608 74.2471 156.512 74.1223 156.414Z" fill="#FAA200"/>
<path d="M38.4055 157.928C39.0486 157.963 39.6364 158.248 40.0314 158.761C40.6413 159.548 40.9857 160.614 41.3081 161.546C39.5163 160.584 37.8209 159.427 36.1334 158.294C36.8713 157.993 37.6044 157.841 38.4055 157.928Z" fill="#FAA200"/>
<path d="M75.459 158.357C73.7715 159.45 72.0651 160.52 70.3571 161.58C70.5514 160.772 70.722 159.925 71.1787 159.215C71.5073 158.712 71.9371 158.217 72.5343 158.035C73.5408 157.766 74.5173 157.956 75.459 158.357Z" fill="#FAA200"/>
<path d="M55.1476 162.449C55.53 162.449 55.9124 162.449 56.2948 162.449C56.3358 164.578 56.3074 166.706 56.2774 168.837C55.895 168.785 55.5142 168.725 55.135 168.655C55.1603 166.586 55.1413 164.516 55.1476 162.449Z" fill="#FAA200"/>
<path d="M50.0946 163.92C51.4013 164.026 52.6591 164.682 53.6308 165.535C54.4303 166.296 54.108 167.209 54.1222 168.19C52.1771 167.308 50.229 166.433 48.3124 165.49C47.8731 165.275 47.4544 165.062 47.0736 164.748C47.9221 164.092 49.0281 163.783 50.0946 163.92Z" fill="#FAA200"/>
<path d="M63.1126 164.105C63.6435 164.22 64.0069 164.55 64.3925 164.908C62.073 166.212 59.6365 167.321 57.2033 168.392C57.2001 167.731 57.2001 167.069 57.208 166.408C57.5683 166.031 57.9222 165.643 58.3109 165.296C59.5512 164.158 61.4899 163.695 63.1126 164.105Z" fill="#FAA200"/>
</svg>
